<svg xmlns="http://www.w3.org/2000/svg" xmlns:xlink="http://www.w3.org/1999/xlink" width="300" zoomAndPan="magnify" viewBox="0 0 224.87999 225" height="300" preserveAspectRatio="xMidYMid meet" version="1.0"><defs><g/><clipPath id="d37e04f30e"><path d="M 64.417969 123 L 140 123 L 140 156.71875 L 64.417969 156.71875 Z M 64.417969 123 " clip-rule="nonzero"/></clipPath><clipPath id="12bade018b"><path d="M 85 69.765625 L 120 69.765625 L 120 96 L 85 96 Z M 85 69.765625 " clip-rule="nonzero"/></clipPath><clipPath id="13f071966e"><path d="M 134 89 L 160.367188 89 L 160.367188 156.71875 L 134 156.71875 Z M 134 89 " clip-rule="nonzero"/></clipPath><clipPath id="942288d3df"><path d="M 33.714844 162.820312 L 40.160156 162.820312 L 40.160156 169.261719 L 33.714844 169.261719 Z M 33.714844 162.820312 " clip-rule="nonzero"/></clipPath><clipPath id="200fc85427"><path d="M 36.9375 162.820312 C 35.160156 162.820312 33.714844 164.261719 33.714844 166.039062 C 33.714844 167.820312 35.160156 169.261719 36.9375 169.261719 C 38.71875 169.261719 40.160156 167.820312 40.160156 166.039062 C 40.160156 164.261719 38.71875 162.820312 36.9375 162.820312 " clip-rule="nonzero"/></clipPath><clipPath id="99aa4fced0"><path d="M 184.71875 162.820312 L 191.164062 162.820312 L 191.164062 169.261719 L 184.71875 169.261719 Z M 184.71875 162.820312 " clip-rule="nonzero"/></clipPath><clipPath id="359547170c"><path d="M 187.941406 162.820312 C 186.164062 162.820312 184.71875 164.261719 184.71875 166.039062 C 184.71875 167.820312 186.164062 169.261719 187.941406 169.261719 C 189.722656 169.261719 191.164062 167.820312 191.164062 166.039062 C 191.164062 164.261719 189.722656 162.820312 187.941406 162.820312 " clip-rule="nonzero"/></clipPath></defs><path fill="#645040" d="M 76.296875 119.789062 C 75.761719 120.152344 75.625 120.878906 75.988281 121.414062 C 76.351562 121.945312 77.082031 122.082031 77.613281 121.71875 C 79.589844 120.378906 81.8125 119.167969 84.21875 118.128906 C 95.65625 113.183594 108.773438 113.183594 120.207031 118.128906 C 122.636719 119.179688 124.878906 120.398438 126.867188 121.757812 C 127.070312 121.894531 127.300781 121.960938 127.527344 121.960938 C 127.898438 121.960938 128.265625 121.785156 128.496094 121.453125 C 128.859375 120.921875 128.722656 120.195312 128.191406 119.828125 C 126.078125 118.386719 123.707031 117.09375 121.140625 115.984375 C 109.113281 110.785156 95.316406 110.785156 83.289062 115.984375 C 80.746094 117.085938 78.390625 118.363281 76.296875 119.789062 " fill-opacity="1" fill-rule="nonzero"/><g clip-path="url(#d37e04f30e)"><path fill="#645040" d="M 80.097656 134.335938 L 80.097656 139.894531 C 80.097656 141.792969 81.644531 143.335938 83.546875 143.335938 L 120.878906 143.335938 C 122.78125 143.335938 124.332031 141.792969 124.332031 139.894531 L 124.332031 134.335938 C 124.332031 129.648438 128.152344 125.835938 132.855469 125.835938 L 134.460938 125.835938 C 136.222656 125.835938 137.65625 127.265625 137.65625 129.023438 L 137.65625 154.386719 L 66.769531 154.386719 L 66.769531 129.023438 C 66.769531 127.265625 68.203125 125.835938 69.964844 125.835938 L 71.574219 125.835938 C 76.273438 125.835938 80.097656 129.648438 80.097656 134.335938 Z M 86.574219 135.433594 L 96.90625 135.433594 C 99.1875 135.433594 101.042969 137.28125 101.042969 139.558594 L 101.042969 141 L 83.546875 141 C 82.9375 141 82.4375 140.503906 82.4375 139.894531 L 82.4375 139.558594 C 82.4375 137.28125 84.292969 135.433594 86.574219 135.433594 Z M 107.519531 135.433594 L 117.851562 135.433594 C 120.132812 135.433594 121.988281 137.28125 121.988281 139.558594 L 121.988281 139.894531 C 121.988281 140.503906 121.492188 141 120.878906 141 L 103.382812 141 L 103.382812 139.558594 C 103.382812 137.28125 105.238281 135.433594 107.519531 135.433594 Z M 69.964844 123.496094 C 66.910156 123.496094 64.429688 125.976562 64.429688 129.023438 L 64.429688 155.554688 C 64.429688 156.199219 64.953125 156.722656 65.597656 156.722656 L 138.828125 156.722656 C 139.476562 156.722656 140 156.199219 140 155.554688 L 140 129.023438 C 140 125.976562 137.515625 123.496094 134.460938 123.496094 L 132.855469 123.496094 C 126.863281 123.496094 121.988281 128.359375 121.988281 134.335938 L 121.988281 134.589844 C 120.867188 133.65625 119.421875 133.097656 117.851562 133.097656 L 107.519531 133.097656 C 105.328125 133.097656 103.386719 134.191406 102.214844 135.859375 C 101.042969 134.191406 99.101562 133.097656 96.90625 133.097656 L 86.574219 133.097656 C 85.003906 133.097656 83.5625 133.65625 82.4375 134.589844 L 82.4375 134.335938 C 82.4375 128.359375 77.566406 123.496094 71.574219 123.496094 L 69.964844 123.496094 " fill-opacity="1" fill-rule="nonzero"/></g><g clip-path="url(#12bade018b)"><path fill="#645040" d="M 87.496094 90.769531 L 87.496094 74.480469 C 87.496094 73.167969 88.570312 72.097656 89.882812 72.097656 L 114.65625 72.097656 C 115.96875 72.097656 117.039062 73.167969 117.039062 74.480469 L 117.039062 90.769531 C 117.039062 92.085938 115.96875 93.152344 114.65625 93.152344 L 89.882812 93.152344 C 88.570312 93.152344 87.496094 92.085938 87.496094 90.769531 Z M 114.65625 95.488281 C 117.261719 95.488281 119.382812 93.371094 119.382812 90.769531 L 119.382812 74.480469 C 119.382812 71.878906 117.261719 69.761719 114.65625 69.761719 L 89.882812 69.761719 C 87.277344 69.761719 85.15625 71.878906 85.15625 74.480469 L 85.15625 90.769531 C 85.15625 93.371094 87.277344 95.488281 89.882812 95.488281 L 114.65625 95.488281 " fill-opacity="1" fill-rule="nonzero"/></g><path fill="#645040" d="M 91.851562 90.285156 L 101.414062 90.285156 C 102.0625 90.285156 102.585938 89.761719 102.585938 89.117188 C 102.585938 88.46875 102.0625 87.949219 101.414062 87.949219 L 93.023438 87.949219 L 93.023438 77.304688 L 111.515625 77.304688 L 111.515625 87.949219 L 110.347656 87.949219 C 109.703125 87.949219 109.179688 88.46875 109.179688 89.117188 C 109.179688 89.761719 109.703125 90.285156 110.347656 90.285156 L 112.6875 90.285156 C 113.332031 90.285156 113.855469 89.761719 113.855469 89.117188 L 113.855469 76.132812 C 113.855469 75.492188 113.332031 74.96875 112.6875 74.96875 L 91.851562 74.96875 C 91.207031 74.96875 90.679688 75.492188 90.679688 76.132812 L 90.679688 89.117188 C 90.679688 89.761719 91.207031 90.285156 91.851562 90.285156 " fill-opacity="1" fill-rule="nonzero"/><path fill="#645040" d="M 106.992188 88.667969 C 106.960938 88.597656 106.925781 88.53125 106.882812 88.464844 C 106.839844 88.402344 106.792969 88.34375 106.738281 88.289062 C 106.519531 88.074219 106.21875 87.945312 105.910156 87.945312 C 105.601562 87.945312 105.300781 88.074219 105.082031 88.289062 C 105.027344 88.34375 104.980469 88.402344 104.933594 88.464844 C 104.894531 88.53125 104.855469 88.597656 104.832031 88.667969 C 104.800781 88.738281 104.777344 88.8125 104.761719 88.886719 C 104.746094 88.964844 104.738281 89.039062 104.738281 89.113281 C 104.738281 89.191406 104.746094 89.269531 104.761719 89.34375 C 104.777344 89.417969 104.800781 89.492188 104.832031 89.5625 C 104.855469 89.632812 104.894531 89.703125 104.933594 89.761719 C 104.980469 89.828125 105.027344 89.886719 105.082031 89.941406 C 105.296875 90.160156 105.601562 90.28125 105.910156 90.28125 C 106.21875 90.28125 106.519531 90.160156 106.738281 89.941406 C 106.953125 89.726562 107.082031 89.421875 107.082031 89.113281 C 107.082031 89.039062 107.070312 88.964844 107.058594 88.886719 C 107.042969 88.8125 107.019531 88.738281 106.992188 88.667969 " fill-opacity="1" fill-rule="nonzero"/><path fill="#645040" d="M 140.542969 115.109375 C 140.542969 115.9375 139.871094 116.609375 139.042969 116.609375 C 138.214844 116.609375 137.539062 115.9375 137.539062 115.109375 C 137.539062 114.285156 138.214844 113.613281 139.042969 113.613281 C 139.871094 113.613281 140.542969 114.285156 140.542969 115.109375 Z M 137.871094 109.804688 L 137.871094 111.460938 C 136.179688 112 134.996094 113.679688 135.226562 115.585938 C 135.4375 117.324219 136.859375 118.726562 138.601562 118.917969 C 140.917969 119.175781 142.886719 117.367188 142.886719 115.109375 C 142.886719 113.402344 141.761719 111.957031 140.214844 111.460938 L 140.214844 109.804688 C 140.214844 109.160156 139.6875 108.636719 139.042969 108.636719 C 138.394531 108.636719 137.871094 109.160156 137.871094 109.804688 " fill-opacity="1" fill-rule="nonzero"/><g clip-path="url(#13f071966e)"><path fill="#645040" d="M 137.476562 104.800781 L 140.9375 93.875 C 141.28125 92.78125 142.285156 92.046875 143.433594 92.046875 L 151.570312 92.046875 C 152.71875 92.046875 153.722656 92.78125 154.070312 93.875 L 157.527344 104.800781 Z M 148.714844 154.386719 L 146.289062 154.386719 L 146.289062 107.132812 L 148.714844 107.132812 Z M 160.070312 106.65625 C 160.292969 106.355469 160.355469 105.96875 160.242188 105.617188 L 156.304688 93.171875 C 155.648438 91.101562 153.746094 89.714844 151.570312 89.714844 L 143.433594 89.714844 C 141.261719 89.714844 139.359375 91.101562 138.703125 93.171875 L 134.761719 105.617188 C 134.652344 105.96875 134.714844 106.355469 134.9375 106.65625 C 135.15625 106.957031 135.507812 107.132812 135.878906 107.132812 L 143.949219 107.132812 L 143.949219 155.554688 C 143.949219 156.199219 144.472656 156.722656 145.121094 156.722656 L 149.886719 156.722656 C 150.535156 156.722656 151.058594 156.199219 151.058594 155.554688 L 151.058594 107.132812 L 159.125 107.132812 C 159.5 107.132812 159.851562 106.957031 160.070312 106.65625 " fill-opacity="1" fill-rule="nonzero"/></g><g fill="#7b6a5d" fill-opacity="1"><g transform="translate(40.64209, 145.419403)"><g><path d="M -11.21875 -9.421875 L -1.46875 -10.765625 L -1.296875 -9.5 L -7.40625 -8.65625 L -2.015625 -5.859375 L -2.015625 -5.828125 L -6.296875 -1.765625 L -0.359375 -2.578125 L -0.1875 -1.359375 L -9.9375 -0.015625 L -9.9375 -0.03125 L -3.984375 -5.578125 L -11.21875 -9.40625 Z M -11.21875 -9.421875 "/></g></g></g><g fill="#7b6a5d" fill-opacity="1"><g transform="translate(39.026261, 131.133729)"><g><path d="M -9.265625 -7.890625 L -8.046875 -7.859375 L -8.21875 -2.953125 L -5.3125 -2.84375 L -5.15625 -7.234375 L -3.9375 -7.1875 L -4.09375 -2.796875 L -1.140625 -2.703125 L -0.96875 -7.796875 L 0.265625 -7.75 L 0.046875 -1.375 L -9.484375 -1.703125 Z M -9.265625 -7.890625 "/></g></g></g><g fill="#7b6a5d" fill-opacity="1"><g transform="translate(39.584206, 120.305507)"><g><path d="M -3.859375 -6.421875 C -3.546875 -6.910156 -3.164062 -7.273438 -2.71875 -7.515625 C -2.28125 -7.765625 -1.804688 -7.84375 -1.296875 -7.75 C -0.703125 -7.632812 -0.238281 -7.394531 0.09375 -7.03125 C 0.4375 -6.664062 0.65625 -6.234375 0.75 -5.734375 C 0.851562 -5.234375 0.851562 -4.703125 0.75 -4.140625 L 0.25 -1.359375 L -9.125 -3.0625 L -8.6875 -5.484375 C -8.507812 -6.441406 -8.175781 -7.144531 -7.6875 -7.59375 C -7.195312 -8.050781 -6.566406 -8.210938 -5.796875 -8.078125 C -5.285156 -7.984375 -4.867188 -7.789062 -4.546875 -7.5 C -4.234375 -7.21875 -4.003906 -6.859375 -3.859375 -6.421875 Z M -4.8125 -3.578125 L -4.546875 -5 C -4.460938 -5.488281 -4.535156 -5.878906 -4.765625 -6.171875 C -5.003906 -6.460938 -5.335938 -6.648438 -5.765625 -6.734375 C -6.234375 -6.816406 -6.609375 -6.726562 -6.890625 -6.46875 C -7.179688 -6.21875 -7.375 -5.832031 -7.46875 -5.3125 L -7.703125 -4.09375 Z M -0.421875 -4.3125 C -0.328125 -4.851562 -0.367188 -5.320312 -0.546875 -5.71875 C -0.734375 -6.113281 -1.0625 -6.351562 -1.53125 -6.4375 C -2.03125 -6.53125 -2.429688 -6.40625 -2.734375 -6.0625 C -3.035156 -5.71875 -3.234375 -5.273438 -3.328125 -4.734375 L -3.59375 -3.34375 L -0.703125 -2.828125 Z M -0.421875 -4.3125 "/></g></g></g><g fill="#7b6a5d" fill-opacity="1"><g transform="translate(41.588034, 110.105558)"><g><path d="M -6.625 -10.21875 L -5.46875 -9.828125 L -7.03125 -5.171875 L -4.28125 -4.234375 L -2.875 -8.390625 L -1.71875 -8.015625 L -3.125 -3.859375 L -0.328125 -2.90625 L 1.296875 -7.734375 L 2.46875 -7.34375 L 0.4375 -1.296875 L -8.59375 -4.34375 Z M -6.625 -10.21875 "/></g></g></g><g fill="#7b6a5d" fill-opacity="1"><g transform="translate(45.214347, 99.88908)"><g><path d="M -7.296875 -6.6875 L 0.109375 -2.9375 L 2.296875 -7.25 L 3.390625 -6.6875 L 0.625 -1.21875 L -7.875 -5.53125 Z M -7.296875 -6.6875 "/></g></g></g><g fill="#7b6a5d" fill-opacity="1"><g transform="translate(50.082222, 90.652917)"><g><path d="M -6.265625 -7.65625 L 0.515625 -2.875 L 3.296875 -6.84375 L 4.3125 -6.140625 L 0.796875 -1.125 L -7 -6.609375 Z M -6.265625 -7.65625 "/></g></g></g><g fill="#7b6a5d" fill-opacity="1"><g transform="translate(56.197675, 82.198333)"><g><path d="M -1.734375 -12.046875 L -0.859375 -11.203125 L -4.21875 -7.640625 L -2.09375 -5.65625 L 0.921875 -8.84375 L 1.796875 -8 L -1.21875 -4.8125 L 0.9375 -2.78125 L 4.4375 -6.46875 L 5.328125 -5.625 L 0.9375 -1 L -5.984375 -7.546875 Z M -1.734375 -12.046875 "/></g></g></g><g fill="#7b6a5d" fill-opacity="1"><g transform="translate(63.755962, 74.436445)"><g><path d="M 5.21875 -4.09375 L 1.265625 -5.46875 C 1.210938 -5.414062 1.132812 -5.347656 1.03125 -5.265625 L -0.078125 -4.40625 L 2.09375 -1.640625 L 1.078125 -0.84375 L -4.796875 -8.34375 L -2.796875 -9.921875 C -2.285156 -10.316406 -1.757812 -10.582031 -1.21875 -10.71875 C -0.675781 -10.851562 -0.15625 -10.832031 0.34375 -10.65625 C 0.84375 -10.488281 1.285156 -10.160156 1.671875 -9.671875 C 2.035156 -9.210938 2.265625 -8.707031 2.359375 -8.15625 C 2.460938 -7.601562 2.378906 -7.066406 2.109375 -6.546875 L 6.375 -5 Z M 0.234375 -6.21875 C 0.773438 -6.644531 1.054688 -7.09375 1.078125 -7.5625 C 1.097656 -8.03125 0.960938 -8.453125 0.671875 -8.828125 C 0.492188 -9.046875 0.269531 -9.222656 0 -9.359375 C -0.257812 -9.492188 -0.550781 -9.546875 -0.875 -9.515625 C -1.207031 -9.492188 -1.539062 -9.351562 -1.875 -9.09375 L -3.03125 -8.1875 L -0.84375 -5.375 Z M 0.234375 -6.21875 "/></g></g></g><g fill="#7b6a5d" fill-opacity="1"><g transform="translate(72.578201, 67.86477)"><g><path d="M -2.6875 -9.515625 L 2.265625 -1.375 L 1.171875 -0.71875 L -3.78125 -8.859375 Z M -2.6875 -9.515625 "/></g></g></g><g fill="#7b6a5d" fill-opacity="1"><g transform="translate(77.87462, 64.485504)"><g><path d="M 6.09375 -13.328125 L 9.984375 -4.28125 L 8.8125 -3.78125 L 6.375 -9.453125 L 5.109375 -3.515625 L 5.09375 -3.5 L 0.015625 -6.546875 L 2.390625 -1.03125 L 1.265625 -0.546875 L -2.625 -9.59375 L -2.609375 -9.59375 L 4.328125 -5.328125 L 6.078125 -13.328125 Z M 6.09375 -13.328125 "/></g></g></g><g fill="#7b6a5d" fill-opacity="1"><g transform="translate(91.320503, 59.196014)"><g/></g></g><g fill="#7b6a5d" fill-opacity="1"><g transform="translate(97.592707, 57.534743)"><g><path d="M 5.53125 -10.46875 L 5.703125 -9.265625 L 1.375 -8.609375 L 1.828125 -5.609375 L 5.609375 -6.1875 L 5.796875 -4.96875 L 2.015625 -4.390625 L 2.625 -0.390625 L 1.359375 -0.203125 L -0.0625 -9.625 Z M 5.53125 -10.46875 "/></g></g></g><g fill="#7b6a5d" fill-opacity="1"><g transform="translate(107.485841, 56.132427)"><g><path d="M 2.53125 -3.375 C 2.53125 -2.957031 2.628906 -2.578125 2.828125 -2.234375 C 3.035156 -1.898438 3.3125 -1.632812 3.65625 -1.4375 C 4.007812 -1.238281 4.394531 -1.140625 4.8125 -1.140625 C 5.25 -1.140625 5.644531 -1.238281 6 -1.4375 C 6.363281 -1.632812 6.644531 -1.90625 6.84375 -2.25 C 7.039062 -2.59375 7.140625 -2.972656 7.140625 -3.390625 L 7.125 -9.546875 L 8.390625 -9.546875 L 8.40625 -3.359375 C 8.40625 -2.679688 8.242188 -2.078125 7.921875 -1.546875 C 7.609375 -1.023438 7.175781 -0.617188 6.625 -0.328125 C 6.082031 -0.0351562 5.476562 0.109375 4.8125 0.109375 C 4.15625 0.109375 3.550781 -0.03125 3 -0.3125 C 2.457031 -0.601562 2.03125 -1.007812 1.71875 -1.53125 C 1.40625 -2.0625 1.25 -2.664062 1.25 -3.34375 L 1.234375 -9.53125 L 2.515625 -9.53125 Z M 2.53125 -3.375 "/></g></g></g><g fill="#7b6a5d" fill-opacity="1"><g transform="translate(119.339792, 56.324766)"><g><path d="M 6.546875 1.015625 L 4.859375 -2.796875 C 4.785156 -2.804688 4.679688 -2.820312 4.546875 -2.84375 L 3.15625 -3.0625 L 2.625 0.40625 L 1.359375 0.203125 L 2.8125 -9.21875 L 5.328125 -8.828125 C 5.960938 -8.722656 6.515625 -8.515625 6.984375 -8.203125 C 7.460938 -7.898438 7.8125 -7.503906 8.03125 -7.015625 C 8.25 -6.535156 8.3125 -5.988281 8.21875 -5.375 C 8.125 -4.800781 7.910156 -4.289062 7.578125 -3.84375 C 7.242188 -3.394531 6.796875 -3.085938 6.234375 -2.921875 L 8.015625 1.25 Z M 4.71875 -4.0625 C 5.394531 -3.957031 5.90625 -4.0625 6.25 -4.375 C 6.601562 -4.6875 6.816406 -5.070312 6.890625 -5.53125 C 6.929688 -5.8125 6.910156 -6.09375 6.828125 -6.375 C 6.753906 -6.664062 6.59375 -6.921875 6.34375 -7.140625 C 6.101562 -7.367188 5.773438 -7.519531 5.359375 -7.59375 L 3.90625 -7.8125 L 3.359375 -4.28125 Z M 4.71875 -4.0625 "/></g></g></g><g fill="#7b6a5d" fill-opacity="1"><g transform="translate(130.089422, 58.076567)"><g><path d="M 12.171875 -6.015625 L 9.09375 3.328125 L 9.0625 3.3125 L 4.640625 -5.625 L 2.515625 0.828125 L 1.3125 0.4375 L 4.390625 -8.890625 L 4.4375 -8.875 L 8.828125 0.125 L 10.96875 -6.421875 Z M 12.171875 -6.015625 "/></g></g></g><g fill="#7b6a5d" fill-opacity="1"><g transform="translate(142.597418, 62.602384)"><g><path d="M 6.546875 -7.421875 L 2.390625 1.15625 L 1.234375 0.59375 L 5.390625 -7.984375 Z M 6.546875 -7.421875 "/></g></g></g><g fill="#7b6a5d" fill-opacity="1"><g transform="translate(148.295793, 65.398805)"><g><path d="M 11.015625 -4.328125 L 10.359375 -3.296875 L 8.1875 -4.65625 L 3.75 2.375 L 2.6875 1.6875 L 7.125 -5.34375 L 5 -6.671875 L 5.65625 -7.703125 Z M 11.015625 -4.328125 "/></g></g></g><g fill="#7b6a5d" fill-opacity="1"><g transform="translate(156.617479, 70.764835)"><g><path d="M 4.125 -0.90625 C 3.851562 -0.582031 3.679688 -0.226562 3.609375 0.15625 C 3.546875 0.539062 3.582031 0.921875 3.71875 1.296875 C 3.851562 1.679688 4.078125 2.007812 4.390625 2.28125 C 4.722656 2.570312 5.085938 2.757812 5.484375 2.84375 C 5.878906 2.9375 6.265625 2.914062 6.640625 2.78125 C 7.015625 2.65625 7.335938 2.429688 7.609375 2.109375 L 11.625 -2.546875 L 12.578125 -1.734375 L 8.546875 2.953125 C 8.097656 3.460938 7.582031 3.816406 7 4.015625 C 6.414062 4.210938 5.820312 4.238281 5.21875 4.09375 C 4.625 3.945312 4.070312 3.65625 3.5625 3.21875 C 3.070312 2.789062 2.710938 2.289062 2.484375 1.71875 C 2.253906 1.144531 2.191406 0.554688 2.296875 -0.046875 C 2.410156 -0.648438 2.691406 -1.207031 3.140625 -1.71875 L 7.171875 -6.40625 L 8.140625 -5.5625 Z M 4.125 -0.90625 "/></g></g></g><g fill="#7b6a5d" fill-opacity="1"><g transform="translate(165.457442, 78.664515)"><g><path d="M 4.28125 5.046875 L 5.515625 1.046875 C 5.472656 0.992188 5.40625 0.914062 5.3125 0.8125 L 4.40625 -0.25 L 1.71875 2.03125 L 0.890625 1.046875 L 8.15625 -5.125 L 9.796875 -3.1875 C 10.222656 -2.6875 10.515625 -2.164062 10.671875 -1.625 C 10.828125 -1.09375 10.828125 -0.570312 10.671875 -0.0625 C 10.523438 0.445312 10.210938 0.90625 9.734375 1.3125 C 9.285156 1.6875 8.789062 1.929688 8.25 2.046875 C 7.707031 2.171875 7.164062 2.109375 6.625 1.859375 L 5.25 6.1875 Z M 6.234375 0 C 6.679688 0.519531 7.132812 0.78125 7.59375 0.78125 C 8.0625 0.78125 8.476562 0.628906 8.84375 0.328125 C 9.050781 0.140625 9.21875 -0.0859375 9.34375 -0.359375 C 9.476562 -0.628906 9.523438 -0.925781 9.484375 -1.25 C 9.441406 -1.570312 9.285156 -1.898438 9.015625 -2.234375 L 8.0625 -3.34375 L 5.34375 -1.046875 Z M 6.234375 0 "/></g></g></g><g fill="#7b6a5d" fill-opacity="1"><g transform="translate(172.398953, 87.101529)"><g><path d="M 12.078125 1.390625 L 11.046875 2.03125 L 8.46875 -2.140625 L 6 -0.59375 L 8.3125 3.140625 L 7.28125 3.78125 L 4.96875 0.046875 L 2.453125 1.59375 L 5.140625 5.921875 L 4.09375 6.578125 L 0.71875 1.171875 L 8.8125 -3.859375 Z M 12.078125 1.390625 "/></g></g></g><g fill="#7b6a5d" fill-opacity="1"><g transform="translate(177.923033, 96.506279)"><g/></g></g><g fill="#7b6a5d" fill-opacity="1"><g transform="translate(180.639823, 102.400813)"><g><path d="M 9.421875 3.46875 C 9.492188 3.101562 9.519531 2.71875 9.5 2.3125 C 9.488281 1.90625 9.429688 1.535156 9.328125 1.203125 C 9.160156 0.722656 8.914062 0.375 8.59375 0.15625 C 8.269531 -0.0625 7.914062 -0.109375 7.53125 0.015625 C 7.15625 0.140625 6.90625 0.410156 6.78125 0.828125 C 6.664062 1.253906 6.601562 1.816406 6.59375 2.515625 C 6.570312 3.035156 6.515625 3.488281 6.421875 3.875 C 6.335938 4.257812 6.15625 4.617188 5.875 4.953125 C 5.601562 5.285156 5.203125 5.539062 4.671875 5.71875 C 4.191406 5.875 3.710938 5.894531 3.234375 5.78125 C 2.765625 5.675781 2.34375 5.4375 1.96875 5.0625 C 1.59375 4.695312 1.300781 4.210938 1.09375 3.609375 C 0.90625 3.054688 0.816406 2.488281 0.828125 1.90625 C 0.835938 1.332031 0.910156 0.804688 1.046875 0.328125 L 2.203125 0.546875 C 2.078125 0.921875 2.003906 1.351562 1.984375 1.84375 C 1.972656 2.34375 2.03125 2.78125 2.15625 3.15625 C 2.320312 3.632812 2.585938 4.007812 2.953125 4.28125 C 3.316406 4.5625 3.742188 4.617188 4.234375 4.453125 C 4.648438 4.316406 4.929688 4.054688 5.078125 3.671875 C 5.222656 3.285156 5.3125 2.78125 5.34375 2.15625 C 5.363281 1.570312 5.40625 1.082031 5.46875 0.6875 C 5.539062 0.300781 5.695312 -0.0664062 5.9375 -0.421875 C 6.1875 -0.773438 6.550781 -1.035156 7.03125 -1.203125 C 7.738281 -1.429688 8.394531 -1.375 9 -1.03125 C 9.601562 -0.6875 10.050781 -0.117188 10.34375 0.671875 C 10.675781 1.640625 10.742188 2.625 10.546875 3.625 Z M 9.421875 3.46875 "/></g></g></g><g fill="#7b6a5d" fill-opacity="1"><g transform="translate(183.727015, 111.80043)"><g><path d="M 1.53125 8.796875 L 1.3125 7.546875 L 5.4375 6.828125 L 4.578125 1.890625 L 0.453125 2.609375 L 0.234375 1.359375 L 9.625 -0.265625 L 9.84375 0.984375 L 5.78125 1.6875 L 6.640625 6.625 L 10.703125 5.921875 L 10.921875 7.171875 Z M 1.53125 8.796875 "/></g></g></g><g fill="#7b6a5d" fill-opacity="1"><g transform="translate(185.713459, 124.093496)"><g><path d="M 4.765625 0.796875 C 5.628906 0.804688 6.429688 1.03125 7.171875 1.46875 C 7.921875 1.90625 8.515625 2.5 8.953125 3.25 C 9.398438 4 9.617188 4.8125 9.609375 5.6875 C 9.609375 6.5625 9.382812 7.367188 8.9375 8.109375 C 8.488281 8.847656 7.890625 9.441406 7.140625 9.890625 C 6.390625 10.335938 5.582031 10.554688 4.71875 10.546875 C 3.832031 10.546875 3.015625 10.320312 2.265625 9.875 C 1.523438 9.425781 0.9375 8.828125 0.5 8.078125 C 0.0703125 7.328125 -0.140625 6.515625 -0.140625 5.640625 C -0.128906 4.765625 0.0859375 3.953125 0.515625 3.203125 C 0.953125 2.453125 1.546875 1.863281 2.296875 1.4375 C 3.046875 1.007812 3.867188 0.796875 4.765625 0.796875 Z M 4.734375 2.109375 C 4.078125 2.109375 3.472656 2.265625 2.921875 2.578125 C 2.367188 2.898438 1.929688 3.332031 1.609375 3.875 C 1.285156 4.414062 1.117188 5.015625 1.109375 5.671875 C 1.109375 6.316406 1.265625 6.910156 1.578125 7.453125 C 1.898438 8.003906 2.335938 8.4375 2.890625 8.75 C 3.441406 9.0625 4.050781 9.21875 4.71875 9.21875 C 5.375 9.226562 5.984375 9.070312 6.546875 8.75 C 7.117188 8.4375 7.566406 8.007812 7.890625 7.46875 C 8.210938 6.9375 8.375 6.34375 8.375 5.6875 C 8.382812 5.039062 8.222656 4.441406 7.890625 3.890625 C 7.566406 3.335938 7.125 2.90625 6.5625 2.59375 C 6 2.28125 5.390625 2.117188 4.734375 2.109375 Z M 4.734375 2.109375 "/></g></g></g><g fill="#7b6a5d" fill-opacity="1"><g transform="translate(185.335782, 137.573542)"><g><path d="M 8.765625 5.453125 C 8.585938 6.460938 8.195312 7.210938 7.59375 7.703125 C 6.988281 8.203125 6.222656 8.375 5.296875 8.21875 C 4.773438 8.132812 4.300781 7.945312 3.875 7.65625 C 3.445312 7.363281 3.128906 6.957031 2.921875 6.4375 C 2.722656 5.925781 2.679688 5.304688 2.796875 4.578125 L 3.03125 3.203125 L -0.4375 2.625 L -0.21875 1.359375 L 9.1875 2.921875 Z M 4.015625 4.78125 C 3.941406 5.238281 3.972656 5.625 4.109375 5.9375 C 4.253906 6.25 4.453125 6.488281 4.703125 6.65625 C 4.960938 6.820312 5.21875 6.925781 5.46875 6.96875 C 5.925781 7.039062 6.359375 6.957031 6.765625 6.71875 C 7.171875 6.488281 7.425781 6.054688 7.53125 5.421875 L 7.765625 3.984375 L 4.25 3.40625 Z M 4.015625 4.78125 "/></g></g></g><g clip-path="url(#942288d3df)"><g clip-path="url(#200fc85427)"><path fill="#7b6a5d" d="M 33.714844 162.820312 L 40.160156 162.820312 L 40.160156 169.261719 L 33.714844 169.261719 Z M 33.714844 162.820312 " fill-opacity="1" fill-rule="nonzero"/></g></g><g clip-path="url(#99aa4fced0)"><g clip-path="url(#359547170c)"><path fill="#7b6a5d" d="M 184.71875 162.820312 L 191.164062 162.820312 L 191.164062 169.261719 L 184.71875 169.261719 Z M 184.71875 162.820312 " fill-opacity="1" fill-rule="nonzero"/></g></g><path stroke-linecap="round" transform="matrix(0.747762, 0, 0, 0.7496, 45.556002, 166.115403)" fill="none" stroke-linejoin="miter" d="M 0.499739 0.497436 L 177.951126 0.497436 " stroke="#7b6a5d" stroke-width="1" stroke-opacity="1" stroke-miterlimit="4"/><g fill="#645040" fill-opacity="1"><g transform="translate(88.497104, 178.138972)"><g><path d="M 2.5625 -2.777344 L 1.878906 -2.914062 C 1.289062 -3.03125 1.027344 -3.316406 1.027344 -3.726562 C 1.027344 -4.152344 1.351562 -4.589844 2.152344 -4.589844 C 2.90625 -4.589844 3.238281 -4.222656 3.324219 -3.761719 L 3.9375 -3.761719 C 3.835938 -4.578125 3.222656 -5.101562 2.152344 -5.101562 C 1.023438 -5.101562 0.410156 -4.503906 0.410156 -3.742188 C 0.410156 -2.988281 0.921875 -2.597656 1.761719 -2.425781 L 2.496094 -2.28125 C 3.035156 -2.171875 3.453125 -1.957031 3.453125 -1.382812 C 3.453125 -0.84375 3.03125 -0.445312 2.210938 -0.445312 C 1.351562 -0.445312 1.023438 -0.929688 0.929688 -1.46875 L 0.308594 -1.46875 C 0.394531 -0.574219 1.007812 0.0664062 2.210938 0.0664062 C 3.359375 0.0664062 4.074219 -0.488281 4.074219 -1.375 C 4.074219 -2.230469 3.511719 -2.582031 2.5625 -2.777344 Z M 2.5625 -2.777344 "/></g></g></g><g fill="#645040" fill-opacity="1"><g transform="translate(94.038162, 178.138972)"><g><path d="M 1.015625 0 L 1.015625 -5.039062 L 0.417969 -5.039062 L 0.417969 0 Z M 1.015625 0 "/></g></g></g><g fill="#645040" fill-opacity="1"><g transform="translate(96.628789, 178.138972)"><g><path d="M 4.355469 -5.039062 L 3.75 -5.039062 L 3.75 -0.921875 L 3.734375 -0.921875 L 1.070312 -5.039062 L 0.417969 -5.039062 L 0.417969 0 L 1.015625 0 L 1.015625 -4.09375 L 1.035156 -4.09375 L 3.675781 0 L 4.355469 0 Z M 4.355469 -5.039062 "/></g></g></g><g fill="#645040" fill-opacity="1"><g transform="translate(102.551247, 178.138972)"><g><path d="M 2.53125 -0.46875 C 1.597656 -0.46875 0.929688 -1.152344 0.929688 -2.519531 C 0.929688 -3.894531 1.597656 -4.578125 2.53125 -4.578125 C 3.246094 -4.578125 3.664062 -4.265625 3.851562 -3.761719 L 4.460938 -3.761719 C 4.273438 -4.628906 3.503906 -5.101562 2.527344 -5.101562 C 1.253906 -5.101562 0.308594 -4.246094 0.308594 -2.519531 C 0.308594 -0.796875 1.253906 0.0664062 2.527344 0.0664062 C 3.511719 0.0664062 4.289062 -0.417969 4.476562 -1.28125 L 3.871094 -1.28125 C 3.675781 -0.777344 3.253906 -0.46875 2.53125 -0.46875 Z M 2.53125 -0.46875 "/></g></g></g><g fill="#645040" fill-opacity="1"><g transform="translate(108.401742, 178.138972)"><g><path d="M 1.015625 -0.53125 L 1.015625 -2.347656 L 3.324219 -2.347656 L 3.324219 -2.835938 L 1.015625 -2.835938 L 1.015625 -4.511719 L 3.683594 -4.511719 L 3.683594 -5.039062 L 0.417969 -5.039062 L 0.417969 0 L 3.757812 0 L 3.757812 -0.53125 Z M 1.015625 -0.53125 "/></g></g></g><g fill="#645040" fill-opacity="1"><g transform="translate(113.532618, 178.138972)"><g/></g></g><g fill="#645040" fill-opacity="1"><g transform="translate(116.655763, 178.138972)"><g><path d="M 0.289062 0 L 3.582031 0 L 3.582031 -0.480469 L 0.90625 -0.480469 L 0.90625 -0.53125 C 0.90625 -1.117188 1.390625 -1.511719 2.101562 -1.941406 C 2.90625 -2.425781 3.546875 -2.792969 3.554688 -3.664062 C 3.554688 -4.460938 2.964844 -5.085938 1.941406 -5.085938 C 0.914062 -5.085938 0.339844 -4.453125 0.339844 -3.527344 L 0.339844 -3.417969 L 0.898438 -3.417969 L 0.898438 -3.527344 C 0.898438 -4.261719 1.359375 -4.597656 1.941406 -4.597656 C 2.53125 -4.597656 2.980469 -4.253906 2.980469 -3.664062 C 2.972656 -2.992188 2.441406 -2.707031 1.769531 -2.296875 C 0.667969 -1.613281 0.289062 -1.085938 0.289062 -0.164062 Z M 0.289062 0 "/></g></g></g><g fill="#645040" fill-opacity="1"><g transform="translate(121.721874, 178.138972)"><g><path d="M 2.265625 -5.101562 C 1.179688 -5.101562 0.308594 -4.246094 0.308594 -2.519531 C 0.308594 -0.792969 1.179688 0.0664062 2.265625 0.0664062 C 3.351562 0.0664062 4.222656 -0.792969 4.222656 -2.519531 C 4.222656 -4.246094 3.351562 -5.101562 2.265625 -5.101562 Z M 3.648438 -2.519531 C 3.648438 -1.246094 3.144531 -0.4375 2.265625 -0.4375 C 1.390625 -0.4375 0.886719 -1.246094 0.886719 -2.519531 C 0.886719 -3.785156 1.390625 -4.597656 2.265625 -4.597656 C 3.144531 -4.597656 3.648438 -3.785156 3.648438 -2.519531 Z M 3.648438 -2.519531 "/></g></g></g><g fill="#645040" fill-opacity="1"><g transform="translate(127.40686, 178.138972)"><g><path d="M 0.289062 0 L 3.582031 0 L 3.582031 -0.480469 L 0.90625 -0.480469 L 0.90625 -0.53125 C 0.90625 -1.117188 1.390625 -1.511719 2.101562 -1.941406 C 2.90625 -2.425781 3.546875 -2.792969 3.554688 -3.664062 C 3.554688 -4.460938 2.964844 -5.085938 1.941406 -5.085938 C 0.914062 -5.085938 0.339844 -4.453125 0.339844 -3.527344 L 0.339844 -3.417969 L 0.898438 -3.417969 L 0.898438 -3.527344 C 0.898438 -4.261719 1.359375 -4.597656 1.941406 -4.597656 C 2.53125 -4.597656 2.980469 -4.253906 2.980469 -3.664062 C 2.972656 -2.992188 2.441406 -2.707031 1.769531 -2.296875 C 0.667969 -1.613281 0.289062 -1.085938 0.289062 -0.164062 Z M 0.289062 0 "/></g></g></g><g fill="#645040" fill-opacity="1"><g transform="translate(132.472974, 178.138972)"><g><path d="M 0.289062 0 L 3.582031 0 L 3.582031 -0.480469 L 0.90625 -0.480469 L 0.90625 -0.53125 C 0.90625 -1.117188 1.390625 -1.511719 2.101562 -1.941406 C 2.90625 -2.425781 3.546875 -2.792969 3.554688 -3.664062 C 3.554688 -4.460938 2.964844 -5.085938 1.941406 -5.085938 C 0.914062 -5.085938 0.339844 -4.453125 0.339844 -3.527344 L 0.339844 -3.417969 L 0.898438 -3.417969 L 0.898438 -3.527344 C 0.898438 -4.261719 1.359375 -4.597656 1.941406 -4.597656 C 2.53125 -4.597656 2.980469 -4.253906 2.980469 -3.664062 C 2.972656 -2.992188 2.441406 -2.707031 1.769531 -2.296875 C 0.667969 -1.613281 0.289062 -1.085938 0.289062 -0.164062 Z M 0.289062 0 "/></g></g></g></svg>